<svg xmlns="http://www.w3.org/2000/svg" width="1200" height="1200" version="1.0" viewBox="0 0 900 900">
    <path fill="#8022FE" d="M438.5 69c-5.4 1-28.7 7.9-64 19-25 7.8-42.2 13-75 22.9-114.7 34.3-111.8 33.3-122.7 43-6.1 5.4-9.6 10.5-13.9 20.1l-3.4 7.5v359l2.8 12c5.6 23.7 16.5 52.5 27.7 73.2 21.7 40.3 58.8 82.7 104.5 119.5 42.2 33.9 114.8 77.5 138.8 83.3 7.9 1.9 23 2.1 30.2.5 26-5.9 99.2-49.3 143-84.9 21-17.1 46.4-41.9 66.1-64.6 22.7-26.3 42.8-59.4 53.7-88.5 3.8-10.1 10.7-36.6 12.8-49 1-5.8 1.4-44.9 1.6-177.4.3-145.4.2-171.1-1.1-178.3-2-11.7-7-21.8-14.7-29.9-10.2-10.5-13.2-12-40.4-20.2-37.5-11.2-48.5-14.6-52-15.8-2.2-.7-18.4-5.7-36-11-43.1-13-117.8-35.9-127.5-39.1-5.5-1.8-23.6-2.5-30.5-1.3m15.8 189.5c2 5.5 5.7 15.8 8.3 23 2.5 7.1 5.7 15.7 6.9 19 1.3 3.3 4.4 11.4 6.9 18 2.4 6.6 7.9 21 12.1 32s8.7 22.9 10 26.5c4.6 13.2 9.8 25.5 11.4 27.2.9.9 17.6 8 37.1 15.8s40.9 16.3 47.5 19c24.4 10 58.2 23.4 64.3 25.6 3.5 1.2 6 2.4 5.5 2.7-.4.3-6.2 2.6-12.8 5.2s-27.7 11-47 18.7c-53.7 21.6-73.2 29.2-83 32.8-4.9 1.8-9.6 3.5-10.4 3.9s-5.9 10.1-11.3 21.6c-10.4 22.1-19.1 43.2-43.9 107.5-2.8 7.4-5.5 13.9-5.9 14.3-.4.5-2.4-3.6-4.5-9s-7.9-20.4-13-33.3-10.9-27.6-12.8-32.5c-3.2-8.5-10.9-26.4-16.4-38.5-9.1-19.9-11-23.9-13-27.3-1.3-2-3.1-3.7-4-3.7s-10-3.3-20.2-7.4-31.9-12.7-48.1-19.1-32.6-12.9-36.5-14.5c-3.8-1.6-15-6.1-24.8-10-9.8-3.8-18.7-7.5-19.9-8.1-2.3-1.2-7.1.9 60.2-26 19.5-7.7 43.9-17.4 54.1-21.4 16.8-6.6 38-15.4 38.7-16 .4-.3 13.6-35 20.8-54.5 3.5-9.6 7-18.9 7.8-20.5.7-1.7 2.6-6.4 4.1-10.5s3.8-10.4 5.2-14c2.1-5.6 19.5-52.8 20.9-56.9.8-2.3 1.8-.3 5.7 10.4m-162.6 42.8c3.2 1.9 12.1 7.2 19.8 11.9s25.7 15.4 40 23.7c14.3 8.4 26.3 15.6 26.7 15.9.3.4-2 7.2-5.1 15.2l-5.8 14.5-12.9 5.3c-7.1 3-13.8 5.6-14.9 5.8-1.7.4-3-1.4-8.4-11.3-3.6-6.5-9.9-17.9-14.1-25.3s-9.3-16.4-11.2-20c-2-3.6-5-8.9-6.7-11.8s-3.1-5.4-3.1-5.5c0-.2-2.5-4.8-5.5-10.2-5.1-9.4-6.1-11.5-5.1-11.5.2 0 3 1.5 6.3 3.3m321.7-.1c-.9 1.8-4.2 7.8-7.4 13.3-3.1 5.5-9.9 17.4-15 26.5s-10.9 19.4-13 23c-2 3.6-6.5 11.8-9.9 18.2-3.5 6.5-6.6 11.8-7 11.8-.5 0-4.1-1.5-8.2-3.4-4.1-1.8-10.4-4.4-14.1-5.7l-6.6-2.3-5.6-14.1c-3.1-7.7-5.6-14.5-5.6-15 0-.6 11.6-7.8 25.7-16 20.9-12.3 40-23.5 64.3-38 3.7-2.2 4.2-1.8 2.4 1.7M349.5 534.5c6 .9 11 2.3 12.5 3.4 2.2 1.6 13.8 25.5 13.9 28.8.1.7-2 2.3-4.6 3.6-5.9 2.9-22.2 12.5-41 24.3-13.1 8.2-43.6 26.4-45.7 27.3-.5.2.4-2.1 2.1-5 1.6-3 6-11 9.8-17.9 9.8-18.2 26.8-47.1 35.3-60.3 3.2-4.9 4.8-6.6 6-6.3.9.3 6.2 1.2 11.7 2.1m219.7 11.7c4.1 6.2 10.6 16.9 14.3 23.8 6.5 12 10 18 22.6 39 6.2 10.4 9.2 16 8.5 16-.4 0-39.9-23.8-53.1-32-3.8-2.4-12.8-7.8-20-12.1-7.1-4.3-14.7-8.9-16.7-10.3l-3.8-2.5 3.4-7.8c8.4-19.6 8.8-20.2 13.1-21.4 5.5-1.5 17.3-3.7 21.1-3.8 2.9-.1 3.7.7 10.6 11.1"/>
    <path fill="#8022FE" d="M442.5 375.2c-3.7 9.5-8.1 20.9-9.7 25.3-3.9 10.2-11.6 30.4-12.7 33.1-.5 1.2-3.1 2.9-6.2 4.1-3 1.1-15.3 6-27.4 10.8s-25.9 10.2-30.6 12c-9 3.4-15.3 6.4-14.7 7 .7.7 72.5 29.4 75.1 30.1 1.6.3 3.1 1.4 3.4 2.3 2.1 6.6 12.7 31 18.3 42.1 3.7 7.4 7.8 16.3 9.1 19.7 1.3 3.5 2.7 6.3 3 6.3.4 0 1.6-2.8 2.9-6.3 1.2-3.4 5.8-13.7 10.1-22.8s8.5-18.3 9.3-20.5c.8-2.1 3-7.5 4.8-11.8l3.3-7.9 16.5-6.5c9.1-3.5 26-10.2 37.5-14.9 11.6-4.7 21.6-8.8 22.3-9 2.4-1 1.1-2.1-5.5-4.6-3.8-1.4-20.7-8.2-37.8-15.1-17-6.9-31.6-12.6-32.3-12.6s-1.7-1.2-2.3-2.8c-.6-1.5-7.1-18.6-14.5-38.1-7.3-19.5-13.7-35.8-14.2-36.3s-3.8 6.5-7.7 16.4"/>
</svg>